<svg width="40" height="40" viewBox="0 0 40 40" fill="none" xmlns="http://www.w3.org/2000/svg">
<rect width="40" height="40" rx="20" fill="#31A0FE"/>
<path d="M22.0869 19.967L21.7334 20.3205L14.3084 27.7455C14.3084 27.7455 14.3084 27.7455 14.3084 27.7455C14.1209 27.933 14.0156 28.1873 14.0156 28.4525C14.0156 28.7176 14.1209 28.9718 14.3083 29.1594C14.3083 29.1594 14.3084 29.1594 14.3084 29.1595M22.0869 19.967L14.3084 29.1595M22.0869 19.967L21.7334 19.6134L14.3117 12.1918C14.1313 12.0035 14.0315 11.7521 14.0338 11.4912C14.0361 11.229 14.1412 10.9782 14.3266 10.7928C14.512 10.6074 14.7628 10.5022 15.025 10.4999C15.2859 10.4977 15.5373 10.5975 15.7256 10.7779L24.2077 19.26C24.2077 19.26 24.2077 19.26 24.2077 19.26C24.3952 19.4475 24.5005 19.7018 24.5005 19.967C24.5005 20.2321 24.3952 20.4864 24.2077 20.6739C24.2077 20.6739 24.2077 20.6739 24.2077 20.674L15.7223 29.1594M22.0869 19.967L15.7223 29.1594M14.3084 29.1595C14.4959 29.3469 14.7502 29.4521 15.0153 29.4521C15.2805 29.4521 15.5348 29.3468 15.7223 29.1594M14.3084 29.1595L15.7223 29.1594" fill="white" stroke="white"/>
</svg>
