<svg width="40" height="40" viewBox="0 0 40 40" fill="none" xmlns="http://www.w3.org/2000/svg">
<rect width="40" height="40" rx="20" fill="#E1F4FF"/>
<path d="M16.4287 19.9852L16.7823 19.6316L24.2072 12.2067C24.2072 12.2067 24.2072 12.2066 24.2073 12.2066C24.3947 12.0191 24.5 11.7648 24.5 11.4997C24.5 11.2346 24.3947 10.9803 24.2073 10.7928C24.2073 10.7928 24.2072 10.7927 24.2072 10.7927M16.4287 19.9852L24.2072 10.7927M16.4287 19.9852L16.7823 20.3387L24.2039 27.7604C24.3843 27.9487 24.4841 28.2001 24.4818 28.4609C24.4796 28.7231 24.3744 28.9739 24.189 29.1594C24.0036 29.3448 23.7528 29.4499 23.4906 29.4522C23.2297 29.4545 22.9783 29.3547 22.79 29.1742L14.3079 20.6922C14.3079 20.6922 14.3079 20.6921 14.3079 20.6921C14.1204 20.5046 14.0151 20.2503 14.0151 19.9852C14.0151 19.72 14.1204 19.4658 14.3079 19.2782C14.3079 19.2782 14.3079 19.2782 14.3079 19.2782L22.7933 10.7928M16.4287 19.9852L22.7933 10.7928M24.2072 10.7927C24.0197 10.6053 23.7654 10.5 23.5003 10.5C23.2352 10.5 22.9808 10.6053 22.7933 10.7928M24.2072 10.7927L22.7933 10.7928" fill="#31A0FE" stroke="#31A0FE"/>
</svg>
