<svg width="80" height="80" viewBox="0 0 80 80" fill="none" xmlns="http://www.w3.org/2000/svg">
<g filter="url(#filter0_d_5081_10)">
<rect x="4" y="2" width="72" height="72" rx="36" fill="#23856D"/>
<path d="M37.9206 51.0136L37.9199 51.0129C33.6184 47.1124 30.0881 43.9066 27.6274 40.8961C25.1721 37.8923 23.834 35.144 23.834 32.1667C23.834 27.2934 27.6429 23.5 32.5007 23.5C35.2495 23.5 37.896 24.7822 39.6212 26.7923L40.0007 27.2344L40.3801 26.7923C42.1053 24.7822 44.7518 23.5 47.5007 23.5C52.3584 23.5 56.1673 27.2934 56.1673 32.1667C56.1673 35.144 54.8292 37.8923 52.3739 40.8961C49.9132 43.9066 46.3829 47.1124 42.0814 51.0129L42.0807 51.0136L40.0007 52.9072L37.9206 51.0136Z" fill="white" stroke="white"/>
</g>
<defs>
<filter id="filter0_d_5081_10" x="0" y="0" width="80" height="80" filterUnits="userSpaceOnUse" color-interpolation-filters="sRGB">
<feFlood flood-opacity="0" result="BackgroundImageFix"/>
<feColorMatrix in="SourceAlpha" type="matrix" values="0 0 0 0 0 0 0 0 0 0 0 0 0 0 0 0 0 0 127 0" result="hardAlpha"/>
<feOffset dy="2"/>
<feGaussianBlur stdDeviation="2"/>
<feColorMatrix type="matrix" values="0 0 0 0 0 0 0 0 0 0 0 0 0 0 0 0 0 0 0.1 0"/>
<feBlend mode="normal" in2="BackgroundImageFix" result="effect1_dropShadow_5081_10"/>
<feBlend mode="normal" in="SourceGraphic" in2="effect1_dropShadow_5081_10" result="shape"/>
</filter>
</defs>
</svg>
